<?xml version="1.0" encoding="UTF-8" standalone="no"?>
<!-- Created with Inkscape (http://www.inkscape.org/) -->

<svg
   xmlns:dc="http://purl.org/dc/elements/1.1/"
   xmlns:cc="http://creativecommons.org/ns#"
   xmlns:rdf="http://www.w3.org/1999/02/22-rdf-syntax-ns#"
   xmlns:svg="http://www.w3.org/2000/svg"
   xmlns="http://www.w3.org/2000/svg"
   xmlns:sodipodi="http://sodipodi.sourceforge.net/DTD/sodipodi-0.dtd"
   xmlns:inkscape="http://www.inkscape.org/namespaces/inkscape"
   id="svg4572"
   version="1.1"
   inkscape:version="0.91 r13725"
   xml:space="preserve"
   width="61.155624"
   height="50.563374"
   viewBox="0 0 61.155625 50.563373"
   sodipodi:docname="interminelogo.svg"><metadata
     id="metadata4578"><rdf:RDF><cc:Work
         rdf:about=""><dc:format>image/svg+xml</dc:format><dc:type
           rdf:resource="http://purl.org/dc/dcmitype/StillImage" /><dc:title></dc:title></cc:Work></rdf:RDF></metadata><defs
     id="defs4576"><clipPath
       clipPathUnits="userSpaceOnUse"
       id="clipPath4588"><path
         d="M 0,144 360,144 360,0 0,0 0,144 Z"
         id="path4590"
         inkscape:connector-curvature="0" /></clipPath></defs><sodipodi:namedview
     pagecolor="#ffffff"
     bordercolor="#666666"
     borderopacity="1"
     objecttolerance="10"
     gridtolerance="10"
     guidetolerance="10"
     inkscape:pageopacity="0"
     inkscape:pageshadow="2"
     inkscape:window-width="1920"
     inkscape:window-height="1024"
     id="namedview4574"
     showgrid="false"
     inkscape:zoom="4.1860721"
     inkscape:cx="71.417734"
     inkscape:cy="-14.101762"
     inkscape:window-x="1920"
     inkscape:window-y="28"
     inkscape:window-maximized="1"
     inkscape:current-layer="g4580"
     fit-margin-top="0"
     fit-margin-left="0"
     fit-margin-right="0"
     fit-margin-bottom="0"
     showguides="true"
     inkscape:guide-bbox="true"><sodipodi:guide
       position="49.927473,-42.044187"
       orientation="0,1"
       id="guide4306" /></sodipodi:namedview><g
     id="g4580"
     inkscape:groupmode="layer"
     inkscape:label="InterMine"
     transform="matrix(1.25,0,0,-1.25,-13.111,114.26862)"><g
       id="g4618"
       transform="matrix(1,0,0,1.0052777,35.7813,80.469104)"><path
         d="m 0,0 c 0,-0.544 0.334,-0.986 0.745,-0.986 l 22.141,0 c 0.412,0 0.746,0.442 0.746,0.986 l 0,9.965 c 0,0.547 -0.334,0.986 -0.746,0.986 l -22.141,0 C 0.334,10.951 0,10.512 0,9.965 L 0,0 Z"
         style="fill:#c0d848;fill-opacity:1;fill-rule:nonzero;stroke:none"
         id="path4620"
         inkscape:connector-curvature="0" /></g><g
       id="g4622"
       transform="matrix(1.0156151,0,0,1.0052777,10.4888,80.469104)"><path
         d="m 0,0 c 0,-0.544 0.334,-0.986 0.746,-0.986 l 22.143,0 c 0.409,0 0.742,0.442 0.742,0.986 l 0,9.965 c 0,0.547 -0.333,0.986 -0.742,0.986 l -22.143,0 C 0.334,10.951 0,10.512 0,9.965 L 0,0 Z"
         style="fill:#373535;fill-opacity:1;fill-rule:nonzero;stroke:none"
         id="path4624"
         inkscape:connector-curvature="0" /></g><g
       id="g4626"
       transform="matrix(1,0,0,1.0051935,35.7813,66.255105)"><path
         d="m 0,0 c 0,-0.541 0.334,-0.983 0.745,-0.983 l 22.141,0 c 0.412,0 0.746,0.442 0.746,0.983 l 0,9.966 c 0,0.545 -0.334,0.989 -0.746,0.989 l -22.141,0 C 0.334,10.955 0,10.511 0,9.966 L 0,0 Z"
         style="fill:#373535;fill-opacity:1;fill-rule:nonzero;stroke:none"
         id="path4628"
         inkscape:connector-curvature="0" /></g><g
       id="g4630"
       transform="matrix(1.0156151,0,0,1.0051935,10.4888,66.255105)"><path
         d="m 0,0 c 0,-0.541 0.334,-0.983 0.746,-0.983 l 22.143,0 c 0.409,0 0.742,0.442 0.742,0.983 l 0,9.966 c 0,0.545 -0.333,0.989 -0.742,0.989 l -22.143,0 C 0.334,10.955 0,10.511 0,9.966 L 0,0 Z"
         style="fill:#c0d848;fill-opacity:1;fill-rule:nonzero;stroke:none"
         id="path4632"
         inkscape:connector-curvature="0" /></g><g
       id="g4634"
       transform="matrix(1,0,0,1.0056147,35.7813,51.95473)"><path
         d="m 0,0 c 0,-0.547 0.334,-0.985 0.745,-0.985 l 22.141,0 c 0.412,0 0.746,0.438 0.746,0.985 l 0,9.966 c 0,0.544 -0.334,0.982 -0.746,0.982 l -22.141,0 C 0.334,10.948 0,10.51 0,9.966 L 0,0 Z"
         style="fill:#373535;fill-opacity:1;fill-rule:nonzero;stroke:none"
         id="path4636"
         inkscape:connector-curvature="0" /></g><g
       id="g4638"
       transform="matrix(1.0156151,0,0,1.0056147,10.4888,51.95473)"><path
         d="m 0,0 c 0,-0.547 0.334,-0.985 0.746,-0.985 l 22.143,0 c 0.409,0 0.742,0.438 0.742,0.985 l 0,9.966 c 0,0.544 -0.333,0.982 -0.742,0.982 l -22.143,0 C 0.334,10.948 0,10.51 0,9.966 L 0,0 Z"
         style="fill:#c0d848;fill-opacity:1;fill-rule:nonzero;stroke:none"
         id="path4640"
         inkscape:connector-curvature="0" /></g></g></svg>